<svg xmlns="http://www.w3.org/2000/svg" width="32" height="32" viewBox="0 0 32 32" fill="none">
  <defs>
    <linearGradient id="bgGradient" x1="0%" y1="0%" x2="100%" y2="100%">
      <stop offset="0%" stop-color="#2563eb" /> <stop offset="100%" stop-color="#9333ea" /> </linearGradient>
  </defs>
  
  <rect width="32" height="32" rx="6" fill="url(#bgGradient)"/>
  
  <g transform="translate(4, 4) scale(1)">
    <path 
      d="M11.017 2.814a1 1 0 0 1 1.966 0l1.051 5.558a2 2 0 0 0 1.594 1.594l5.558 1.051a1 1 0 0 1 0 1.966l-5.558 1.051a2 2 0 0 0-1.594 1.594l-1.051 5.558a1 1 0 0 1-1.966 0l-1.051-5.558a2 2 0 0 0-1.594-1.594l-5.558-1.051a1 1 0 0 1 0-1.966l5.558-1.051a2 2 0 0 0 1.594-1.594z" 
      fill="white"
    />
    <path 
      d="M20 2v4M22 4h-4" 
      stroke="white" 
      stroke-width="2" 
      stroke-linecap="round" 
      stroke-linejoin="round"
    />
    <circle cx="4" cy="20" r="2" fill="white" />
  </g>
</svg>
